<svg width="360" height="792" viewBox="0 0 360 792" fill="none" xmlns="http://www.w3.org/2000/svg">
<g opacity="0.9">
<path opacity="0.9" d="M71.0745 280.266C107.539 253.761 115.568 202.679 89.0082 166.171C62.4486 129.662 11.3579 121.552 -25.1062 148.057C-61.5703 174.561 -69.5995 225.643 -43.04 262.151C-16.4804 298.66 34.6104 306.77 71.0745 280.266Z" stroke="white" stroke-opacity="0.3" stroke-width="0.5" stroke-miterlimit="10"/>
<path opacity="0.9" d="M101.014 174.155C72.9442 135.319 18.7438 126.543 -20.0454 154.554C-58.8347 182.566 -67.5241 236.757 -39.4538 275.593C-11.3835 314.43 42.8169 323.206 81.6061 295.194C120.395 267.183 129.085 212.992 101.014 174.155Z" stroke="white" stroke-opacity="0.3" stroke-width="0.5" stroke-miterlimit="10"/>
<path opacity="0.9" d="M93.1359 310.312C134.352 280.24 143.334 222.407 113.198 181.139C83.0623 139.87 25.2201 130.793 -15.9959 160.865C-57.212 190.937 -66.1942 248.77 -36.0583 290.038C-5.92233 331.307 51.9199 340.383 93.1359 310.312Z" stroke="white" stroke-opacity="0.3" stroke-width="0.5" stroke-miterlimit="10"/>
<path opacity="0.9" d="M104.706 326.157C148.752 294.005 158.339 232.19 126.119 188.089C93.8986 143.987 32.073 134.3 -11.9727 166.451C-56.0184 198.603 -65.6051 260.418 -33.385 304.52C-1.16501 348.621 60.6606 358.309 104.706 326.157Z" stroke="white" stroke-opacity="0.3" stroke-width="0.5" stroke-miterlimit="10"/>
<path opacity="0.9" d="M116.379 342.54C163.554 308.25 173.941 242.162 139.578 194.927C105.216 147.692 39.1158 137.199 -8.05976 171.488C-55.2353 205.778 -65.6221 271.867 -31.2594 319.102C3.10331 366.336 69.2031 376.83 116.379 342.54Z" stroke="white" stroke-opacity="0.3" stroke-width="0.5" stroke-miterlimit="10"/>
<path opacity="0.9" d="M128.451 359.135C178.872 322.486 189.974 251.851 153.248 201.367C116.521 150.884 45.8744 139.669 -4.54658 176.317C-54.9676 212.966 -66.0693 283.601 -29.343 334.085C7.38327 384.568 78.0301 395.784 128.451 359.135Z" stroke="white" stroke-opacity="0.3" stroke-width="0.5" stroke-miterlimit="10"/>
<path opacity="0.9" d="M140.724 376.005C194.541 336.888 206.391 261.496 167.191 207.613C127.992 153.729 52.587 141.759 -1.22999 180.877C-55.047 219.994 -66.8969 295.386 -27.6974 349.269C11.5021 403.152 86.9068 415.122 140.724 376.005Z" stroke="white" stroke-opacity="0.3" stroke-width="0.5" stroke-miterlimit="10"/>
<path opacity="0.9" d="M181.502 213.901C139.852 156.412 59.5422 143.5 2.12461 185.061C-55.293 226.623 -68.0753 306.919 -26.4255 364.409C15.2244 421.898 95.5344 434.81 152.952 393.248C210.37 351.687 223.152 271.39 181.502 213.901Z" stroke="white" stroke-opacity="0.3" stroke-width="0.5" stroke-miterlimit="10"/>
<path opacity="0.9" d="M221.07 285.219C223.979 312.059 218.866 339.152 206.377 363.073C193.887 386.995 174.581 406.67 150.9 419.614C127.219 432.557 100.225 438.187 73.331 435.792C46.4368 433.397 20.8494 423.084 -0.196793 406.157C-21.243 389.23 -36.8033 366.448 -44.9108 340.693C-53.0183 314.937 -53.3091 287.362 -45.7463 261.455C-38.1836 235.548 -23.1069 212.471 -2.42192 195.141C18.2631 177.811 43.6277 167.006 70.466 164.091C88.304 162.144 106.354 163.734 123.583 168.77C140.812 173.806 156.881 182.19 170.87 193.441C184.859 204.693 196.494 218.59 205.108 234.339C213.722 250.087 219.146 267.377 221.07 285.219V285.219Z" stroke="white" stroke-opacity="0.3" stroke-width="0.5" stroke-miterlimit="10"/>
<path opacity="0.9" d="M178.407 427.804C243.067 380.805 257.304 290.222 210.205 225.48C163.106 160.739 72.5081 146.356 7.84784 193.355C-56.8124 240.354 -71.0489 330.937 -23.9504 395.678C23.1481 460.419 113.747 474.802 178.407 427.804Z" stroke="white" stroke-opacity="0.3" stroke-width="0.5" stroke-miterlimit="10"/>
<path opacity="0.9" d="M191.181 445.363C259.618 395.619 274.686 299.747 224.838 231.225C174.989 162.704 79.1005 147.482 10.6639 197.225C-57.7726 246.969 -72.8412 342.842 -22.9927 411.363C26.8558 479.884 122.745 495.107 191.181 445.363Z" stroke="white" stroke-opacity="0.3" stroke-width="0.5" stroke-miterlimit="10"/>
<path opacity="0.9" d="M204.032 463.028C276.305 410.496 292.219 309.249 239.577 236.888C186.935 164.526 85.6708 148.451 13.3977 200.984C-58.8753 253.516 -74.7892 354.762 -22.1469 427.124C30.4954 499.486 131.759 515.56 204.032 463.028Z" stroke="white" stroke-opacity="0.3" stroke-width="0.5" stroke-miterlimit="10"/>
<path opacity="0.9" d="M216.951 480.785C293.109 425.429 309.878 318.739 254.405 242.486C198.932 166.233 92.2233 149.293 16.0648 204.65C-60.0938 260.006 -76.8627 366.697 -21.3896 442.949C34.0835 519.202 140.792 536.142 216.951 480.785Z" stroke="white" stroke-opacity="0.3" stroke-width="0.5" stroke-miterlimit="10"/>
<path opacity="0.9" d="M229.928 498.624C310.016 440.412 327.649 328.217 269.314 248.03C210.978 167.843 98.7645 150.029 18.6771 208.241C-61.4102 266.453 -79.0437 378.648 -20.7083 458.835C37.6271 539.022 149.841 556.836 229.928 498.624Z" stroke="white" stroke-opacity="0.3" stroke-width="0.5" stroke-miterlimit="10"/>
<path opacity="0.9" d="M242.953 516.528C327.007 455.433 345.513 337.681 284.288 253.522C223.063 169.362 105.291 150.665 21.2376 211.76C-62.8162 272.855 -81.3225 390.607 -20.0974 474.767C41.1277 558.926 158.9 577.623 242.953 516.528Z" stroke="white" stroke-opacity="0.3" stroke-width="0.5" stroke-miterlimit="10"/>
<path opacity="0.9" d="M256.023 534.494C344.077 470.491 363.465 347.135 299.327 258.972C235.188 170.808 111.812 151.222 23.7582 215.225C-64.2959 279.228 -83.6837 402.583 -19.5455 490.747C44.5926 578.91 167.969 598.496 256.023 534.494Z" stroke="white" stroke-opacity="0.3" stroke-width="0.5" stroke-miterlimit="10"/>
<path opacity="0.9" d="M269.125 552.503C361.205 485.573 381.48 356.578 314.41 264.384C247.34 172.19 118.322 151.709 26.2415 218.639C-65.8392 285.568 -86.1143 414.563 -19.044 506.758C48.0263 598.952 177.044 619.433 269.125 552.503Z" stroke="white" stroke-opacity="0.3" stroke-width="0.5" stroke-miterlimit="10"/>
<path opacity="0.9" d="M282.263 570.564C378.395 500.689 399.562 366.018 329.54 269.767C259.519 173.516 124.825 152.133 28.6926 222.008C-67.4393 291.882 -88.6059 426.553 -18.5843 522.804C51.4374 619.055 186.131 640.438 282.263 570.564Z" stroke="white" stroke-opacity="0.3" stroke-width="0.5" stroke-miterlimit="10"/>
<path opacity="0.9" d="M295.427 588.659C395.631 515.825 417.694 375.449 344.706 275.12C271.718 174.791 131.318 152.503 31.1141 225.336C-69.0896 298.17 -91.1523 438.546 -18.1642 538.875C54.8239 639.204 195.224 661.493 295.427 588.659Z" stroke="white" stroke-opacity="0.3" stroke-width="0.5" stroke-miterlimit="10"/>
<path opacity="0.9" d="M308.618 606.791C412.915 530.982 435.879 384.874 359.911 280.449C283.943 176.024 137.809 152.825 33.5131 228.634C-70.7833 304.443 -93.7477 450.551 -17.7795 554.976C58.1887 659.401 204.322 682.6 308.618 606.791Z" stroke="white" stroke-opacity="0.3" stroke-width="0.5" stroke-miterlimit="10"/>
<path opacity="0.9" d="M321.832 624.954C430.238 546.159 454.107 394.293 375.145 285.752C296.183 177.212 144.291 153.099 35.8851 231.894C-72.5208 310.69 -96.3897 462.556 -17.4276 571.097C61.5345 679.637 213.426 703.75 321.832 624.954Z" stroke="white" stroke-opacity="0.3" stroke-width="0.5" stroke-miterlimit="10"/>
<path opacity="0.9" d="M335.063 643.141C447.591 561.349 472.367 403.707 390.402 291.038C308.436 178.369 150.768 153.338 38.2393 235.131C-74.2892 316.923 -99.0654 474.565 -17.0999 587.234C64.8656 699.903 222.534 724.933 335.063 643.141Z" stroke="white" stroke-opacity="0.3" stroke-width="0.5" stroke-miterlimit="10"/>
</g>
</svg>
