<svg width="360" height="615" viewBox="0 0 360 615" fill="none" xmlns="http://www.w3.org/2000/svg">
<g opacity="0.9">
<path opacity="0.9" d="M40.6397 143.101C83.306 114.211 168.44 165.263 230.793 257.128C293.145 348.993 309.104 446.884 266.437 475.773C223.771 504.663 138.637 453.611 76.2845 361.746C13.9322 269.881 -2.0265 171.99 40.6397 143.101Z" stroke="#C4C4C4" stroke-opacity="0.6" stroke-width="0.5" stroke-miterlimit="10"/>
<path opacity="0.9" d="M53.5976 144.119C96.3958 117.737 177.205 171.081 234.089 263.268C290.973 355.454 302.392 451.573 259.594 477.956C216.796 504.338 135.987 450.993 79.1027 358.807C22.2183 266.62 10.7993 170.501 53.5976 144.119Z" stroke="#C4C4C4" stroke-opacity="0.6" stroke-width="0.5" stroke-miterlimit="10"/>
<path opacity="0.9" d="M81.9205 355.87C30.5046 263.364 23.6253 169.019 66.5551 145.144C109.485 121.269 185.967 176.905 237.383 269.411C288.799 361.918 295.678 456.263 252.748 480.138C209.819 504.013 133.336 448.377 81.9205 355.87Z" stroke="#C4C4C4" stroke-opacity="0.6" stroke-width="0.5" stroke-miterlimit="10"/>
<path opacity="0.9" d="M84.7397 352.927C38.7919 260.1 36.4507 167.528 79.5105 146.161C122.57 124.794 194.725 182.724 240.673 275.551C286.621 368.378 288.962 460.951 245.902 482.318C202.842 503.684 130.688 445.754 84.7397 352.927Z" stroke="#C4C4C4" stroke-opacity="0.6" stroke-width="0.5" stroke-miterlimit="10"/>
<path opacity="0.9" d="M87.5584 349.987C47.0784 256.84 49.2764 166.041 92.4676 147.181C135.659 128.321 203.488 188.543 243.968 281.69C284.448 374.837 282.25 465.636 239.059 484.496C195.867 503.356 128.038 443.134 87.5584 349.987Z" stroke="#C4C4C4" stroke-opacity="0.6" stroke-width="0.5" stroke-miterlimit="10"/>
<path opacity="0.9" d="M90.3793 347.047C55.367 253.581 62.1034 164.555 105.426 148.203C148.748 131.85 212.25 194.363 247.263 287.83C282.275 381.296 275.539 470.322 232.216 486.674C188.894 503.027 125.392 440.514 90.3793 347.047Z" stroke="#C4C4C4" stroke-opacity="0.6" stroke-width="0.5" stroke-miterlimit="10"/>
<path opacity="0.9" d="M93.1984 344.104C63.6548 250.317 74.9301 163.065 118.383 149.221C161.835 135.376 221.01 200.182 250.554 293.969C280.097 387.756 268.822 475.008 225.37 488.852C181.917 502.697 122.742 437.891 93.1984 344.104Z" stroke="#C4C4C4" stroke-opacity="0.6" stroke-width="0.5" stroke-miterlimit="10"/>
<path opacity="0.9" d="M96.0211 341.16C71.9454 247.053 87.7581 161.574 131.34 150.237C174.922 138.901 229.769 205.999 253.845 300.106C277.921 394.213 262.108 479.692 218.526 491.029C174.944 502.365 120.097 435.267 96.0211 341.16Z" stroke="#C4C4C4" stroke-opacity="0.6" stroke-width="0.5" stroke-miterlimit="10"/>
<path opacity="0.9" d="M98.8435 338.219C80.2357 243.792 100.586 160.086 144.298 151.257C188.009 142.428 238.529 211.819 257.137 306.246C275.745 400.673 255.394 484.378 211.683 493.207C167.971 502.036 117.451 432.646 98.8435 338.219Z" stroke="#C4C4C4" stroke-opacity="0.6" stroke-width="0.5" stroke-miterlimit="10"/>
<path opacity="0.9" d="M101.664 335.275C88.524 240.53 113.413 158.598 157.255 152.276C201.097 145.954 247.29 217.636 260.43 312.382C273.57 407.127 248.681 489.059 204.839 495.381C160.997 501.703 114.804 430.021 101.664 335.275Z" stroke="#C4C4C4" stroke-opacity="0.6" stroke-width="0.5" stroke-miterlimit="10"/>
<path opacity="0.9" d="M104.493 332.321C96.8215 237.255 126.248 157.096 170.219 153.282C214.19 149.468 256.054 223.442 263.725 318.509C271.397 413.575 241.97 493.733 197.999 497.548C154.029 501.362 112.164 427.387 104.493 332.321Z" stroke="#C4C4C4" stroke-opacity="0.6" stroke-width="0.5" stroke-miterlimit="10"/>
<path opacity="0.9" d="M107.317 329.381C105.113 233.995 139.077 155.61 183.178 154.303C227.279 152.996 264.816 229.262 267.02 324.648C269.223 420.033 235.259 498.418 191.158 499.726C147.057 501.033 109.52 424.767 107.317 329.381Z" stroke="#C4C4C4" stroke-opacity="0.6" stroke-width="0.5" stroke-miterlimit="10"/>
<path opacity="0.9" d="M110.141 326.441C113.404 230.735 151.905 154.123 196.134 155.323C240.363 156.522 273.572 235.08 270.308 330.785C267.045 426.491 228.544 503.103 184.315 501.903C140.086 500.704 106.877 422.147 110.141 326.441Z" stroke="#C4C4C4" stroke-opacity="0.6" stroke-width="0.5" stroke-miterlimit="10"/>
<path opacity="0.9" d="M113.049 323.622C121.763 227.641 164.772 152.83 209.111 156.529C253.45 160.228 282.329 241.035 273.615 337.017C264.9 432.998 221.892 507.809 177.553 504.11C133.214 500.411 104.334 419.604 113.049 323.622Z" stroke="#C4C4C4" stroke-opacity="0.6" stroke-width="0.5" stroke-miterlimit="10"/>
<path opacity="0.9" d="M115.779 320.56C129.978 224.216 177.554 151.151 222.041 157.364C266.529 163.577 291.083 246.716 276.883 343.059C262.684 439.403 215.108 512.468 170.621 506.255C126.133 500.042 101.579 416.904 115.779 320.56Z" stroke="#C4C4C4" stroke-opacity="0.6" stroke-width="0.5" stroke-miterlimit="10"/>
<path opacity="0.9" d="M118.606 317.619C138.273 220.957 190.384 149.664 235 158.383C279.616 167.103 299.841 252.531 280.174 349.194C260.507 445.857 208.395 517.149 163.779 508.43C119.164 499.711 98.9387 414.282 118.606 317.619Z" stroke="#C4C4C4" stroke-opacity="0.6" stroke-width="0.5" stroke-miterlimit="10"/>
<path opacity="0.9" d="M121.427 314.681C146.56 217.699 203.208 148.179 247.953 159.404C292.698 170.629 308.595 258.348 283.462 355.33C258.328 452.312 201.68 521.832 156.935 510.607C112.19 499.382 96.2926 411.663 121.427 314.681Z" stroke="#C4C4C4" stroke-opacity="0.6" stroke-width="0.5" stroke-miterlimit="10"/>
<path opacity="0.9" d="M124.249 311.742C154.851 214.44 216.037 146.692 260.911 160.423C305.785 174.154 317.356 264.164 286.754 361.466C256.152 458.768 194.967 526.516 150.092 512.785C105.218 499.054 93.6477 409.044 124.249 311.742Z" stroke="#C4C4C4" stroke-opacity="0.6" stroke-width="0.5" stroke-miterlimit="10"/>
<path opacity="0.9" d="M127.072 308.8C163.142 211.178 228.865 145.203 273.869 161.44C318.872 177.677 326.115 269.978 290.045 367.6C253.975 465.221 188.252 531.197 143.248 514.96C98.2444 498.723 91.0023 406.422 127.072 308.8Z" stroke="#C4C4C4" stroke-opacity="0.6" stroke-width="0.5" stroke-miterlimit="10"/>
<path opacity="0.9" d="M129.898 305.864C171.435 207.924 241.694 143.721 286.826 162.464C331.958 181.206 334.873 275.795 293.336 373.735C251.8 471.675 181.541 535.878 136.409 517.136C91.2768 498.394 88.362 403.804 129.898 305.864Z" stroke="#C4C4C4" stroke-opacity="0.6" stroke-width="0.5" stroke-miterlimit="10"/>
<path opacity="0.9" d="M132.72 302.926C179.723 204.666 254.519 142.235 299.781 163.483C345.043 184.73 343.632 281.61 296.628 379.87C249.625 478.129 174.829 540.56 129.567 519.313C84.3052 498.065 85.7168 401.185 132.72 302.926Z" stroke="#C4C4C4" stroke-opacity="0.6" stroke-width="0.5" stroke-miterlimit="10"/>
<path opacity="0.9" d="M135.539 299.985C188.01 201.406 267.343 140.747 312.734 164.5C358.126 188.252 352.387 287.422 299.917 386.002C247.446 484.581 168.113 545.24 122.722 521.487C77.3303 497.734 83.0689 398.564 135.539 299.985Z" stroke="#C4C4C4" stroke-opacity="0.6" stroke-width="0.5" stroke-miterlimit="10"/>
</g>
</svg>
