<svg width="29" height="28" viewBox="0 0 29 28" fill="none" xmlns="http://www.w3.org/2000/svg">
<path d="M4.85714 4.85185H28L25.1071 17.3704H7.75M25.1071 21.2222H8.71429L3.89286 1H1" stroke="#373737" stroke-width="2" stroke-linecap="round" stroke-linejoin="round"/>
<path d="M23.1786 27C24.2437 27 25.1071 26.1378 25.1071 25.0741C25.1071 24.0105 24.2437 23.1482 23.1786 23.1482C22.1135 23.1482 21.25 24.0105 21.25 25.0741C21.25 26.1378 22.1135 27 23.1786 27Z" stroke="#373737" stroke-width="2" stroke-linecap="round" stroke-linejoin="round"/>
<path d="M10.6434 27C11.7085 27 12.572 26.1378 12.572 25.0741C12.572 24.0105 11.7085 23.1482 10.6434 23.1482C9.57829 23.1482 8.71484 24.0105 8.71484 25.0741C8.71484 26.1378 9.57829 27 10.6434 27Z" stroke="#373737" stroke-width="2" stroke-linecap="round" stroke-linejoin="round"/>
</svg>
