<svg width="32" height="31" viewBox="0 0 32 31" fill="none" xmlns="http://www.w3.org/2000/svg">
<path d="M5.28571 5.29623H31L27.7857 19.259H8.5M27.7857 23.5552H9.57143L4.21429 1H1" stroke="#373737" stroke-width="2" stroke-linecap="round" stroke-linejoin="round"/>
<path d="M25.6429 30.0003C26.8263 30.0003 27.7857 29.0386 27.7857 27.8522C27.7857 26.6658 26.8263 25.7041 25.6429 25.7041C24.4594 25.7041 23.5 26.6658 23.5 27.8522C23.5 29.0386 24.4594 30.0003 25.6429 30.0003Z" stroke="#373737" stroke-width="2" stroke-linecap="round" stroke-linejoin="round"/>
<path d="M11.7151 30.0003C12.8986 30.0003 13.858 29.0386 13.858 27.8522C13.858 26.6658 12.8986 25.7041 11.7151 25.7041C10.5317 25.7041 9.57227 26.6658 9.57227 27.8522C9.57227 29.0386 10.5317 30.0003 11.7151 30.0003Z" stroke="#373737" stroke-width="2" stroke-linecap="round" stroke-linejoin="round"/>
</svg>
